<?xml version="1.0" encoding="utf-8"?>
<!-- Generator: Adobe Illustrator 19.1.0, SVG Export Plug-In . SVG Version: 6.00 Build 0)  -->
<svg version="1.1" id="Layer_1" xmlns="http://www.w3.org/2000/svg" xmlns:xlink="http://www.w3.org/1999/xlink" x="0px" y="0px"
	 viewBox="0 0 70 23" style="enable-background:new 0 0 70 23;" xml:space="preserve">
<style type="text/css">
	.st0{fill:#587FC0;}
	.st1{fill:#DB3336;}
	.st2{fill:#F3C217;}
	.st3{fill:#45B754;}
</style>
<g>
	<path id="path2998" class="st0" d="M17.2,8.1H9.1v2.4h5.8c-0.3,3.4-3.1,4.9-5.8,4.9c-3.4,0-6.4-2.7-6.4-6.5c0-3.7,2.8-6.5,6.4-6.5
		c2.8,0,4.4,1.8,4.4,1.8l1.7-1.8C15.1,2.5,13,0,9,0C3.9,0,0,4.3,0,8.9c0,4.5,3.7,8.9,9.1,8.9c4.8,0,8.3-3.3,8.3-8.1
		C17.4,8.7,17.2,8.1,17.2,8.1L17.2,8.1z"/>
	<path id="path3000" class="st1" d="M23.9,6.4c-3.4,0-5.8,2.6-5.8,5.7c0,3.1,2.3,5.8,5.8,5.8c3.1,0,5.7-2.4,5.7-5.7
		C29.7,8.3,26.7,6.4,23.9,6.4L23.9,6.4z M24,8.6c1.7,0,3.2,1.3,3.2,3.5c0,2.1-1.6,3.5-3.2,3.5c-1.8,0-3.3-1.5-3.3-3.5
		C20.7,10.1,22.1,8.6,24,8.6L24,8.6z"/>
	<path id="path3005" class="st2" d="M36.5,6.4c-3.4,0-5.8,2.6-5.8,5.7c0,3.1,2.3,5.8,5.8,5.8c3.1,0,5.7-2.4,5.7-5.7
		C42.2,8.3,39.2,6.4,36.5,6.4L36.5,6.4z M36.5,8.6c1.7,0,3.2,1.3,3.2,3.5c0,2.1-1.6,3.5-3.2,3.5c-1.8,0-3.3-1.5-3.3-3.5
		C33.2,10.1,34.6,8.6,36.5,8.6L36.5,8.6z"/>
	<path id="path3007" class="st0" d="M48.8,6.4c-3.1,0-5.5,2.7-5.5,5.7c0,3.4,2.8,5.7,5.4,5.7c1.6,0,2.5-0.6,3.1-1.4v1.1
		c0,2-1.2,3.2-3,3.2c-1.8,0-2.6-1.3-2.9-2l-2.2,0.9c0.8,1.7,2.4,3.4,5.2,3.4c3.1,0,5.4-1.9,5.4-6V6.7h-2.4v1
		C51.1,6.9,50.1,6.4,48.8,6.4L48.8,6.4z M49,8.6c1.5,0,3.1,1.3,3.1,3.5c0,2.2-1.5,3.5-3.1,3.5c-1.6,0-3.2-1.3-3.2-3.5
		C45.8,9.9,47.4,8.6,49,8.6L49,8.6z"/>
	<path id="path3011" class="st1" d="M64.9,6.4c-2.9,0-5.3,2.3-5.3,5.7c0,3.6,2.7,5.8,5.6,5.8c2.4,0,3.9-1.3,4.8-2.5L68,14
		c-0.5,0.8-1.4,1.6-2.8,1.6c-1.6,0-2.4-0.9-2.8-1.7l7.7-3.2l-0.4-0.9C69,7.9,67.2,6.4,64.9,6.4L64.9,6.4z M65,8.6
		c1,0,1.8,0.6,2.1,1.2L62,11.9C61.8,10.3,63.4,8.6,65,8.6L65,8.6z"/>
	<path id="path3015" class="st3" d="M55.9,17.5h2.5V0.6h-2.5V17.5z"/>
</g>
</svg>
